# xmcd
#
# Track frame offsets: 
#        150
#        17212
#        34358
#        57780
#        88669
#        113117
#
# Disc length: 1937 seconds
#
# Revision: 0
# Processed by: cddbd v1.5.2PL0 Copyright (c) Steve Scherf et al.
# Submitted via: ExactAudioCopy v0.95b4
#
DISCID=48078f06
DTITLE=Boogie Pimps - Salt Shaker
DYEAR=2003
DGENRE=
TTITLE0=Radio Mix
TTITLE1=Radio Mix (Clear)
TTITLE2=Main Club Mix
TTITLE3=Moonbootica Mix
TTITLE4=ClubReise (MJK - Mark J Klak Mix)
TTITLE5=CaterpillarClassich (MJK - Mark J Klak Mix)
EXTD=
EXTT0=
EXTT1=
EXTT2=
EXTT3=
EXTT4=
EXTT5=
PLAYORDER=
